<mxfile host="app.diagrams.net" modified="2024-05-17T14:30:12.853Z" agent="Mozilla/5.0 (Windows NT 10.0; Win64; x64) AppleWebKit/537.36 (KHTML, like Gecko) Chrome/124.0.0.0 Safari/537.36" etag="AOeW2z8-aUWfVrjEKML8" version="24.4.4" type="device">
  <diagram name="Trang-1" id="1Rvnuqxb2qKW-ZS1dRXw">
    <mxGraphModel dx="2140" dy="706" grid="1" gridSize="10" guides="1" tooltips="1" connect="1" arrows="1" fold="1" page="1" pageScale="1" pageWidth="827" pageHeight="1169" math="0" shadow="0">
      <root>
        <mxCell id="0" />
        <mxCell id="1" parent="0" />
        <mxCell id="Qz8t4njGLXkgyJiMcpQb-1" value="Travel&amp;nbsp;&lt;div&gt;Management&lt;/div&gt;&lt;div&gt;System&lt;/div&gt;" style="ellipse;whiteSpace=wrap;html=1;" vertex="1" parent="1">
          <mxGeometry x="330" y="40" width="130" height="80" as="geometry" />
        </mxCell>
        <mxCell id="Qz8t4njGLXkgyJiMcpQb-21" value="" style="edgeStyle=orthogonalEdgeStyle;rounded=0;orthogonalLoop=1;jettySize=auto;html=1;" edge="1" parent="1" source="Qz8t4njGLXkgyJiMcpQb-2" target="Qz8t4njGLXkgyJiMcpQb-17">
          <mxGeometry relative="1" as="geometry" />
        </mxCell>
        <mxCell id="Qz8t4njGLXkgyJiMcpQb-2" value="Manage Customers" style="rounded=1;whiteSpace=wrap;html=1;" vertex="1" parent="1">
          <mxGeometry y="200" width="120" height="60" as="geometry" />
        </mxCell>
        <mxCell id="Qz8t4njGLXkgyJiMcpQb-24" value="" style="edgeStyle=orthogonalEdgeStyle;rounded=0;orthogonalLoop=1;jettySize=auto;html=1;" edge="1" parent="1" source="Qz8t4njGLXkgyJiMcpQb-3" target="Qz8t4njGLXkgyJiMcpQb-20">
          <mxGeometry relative="1" as="geometry" />
        </mxCell>
        <mxCell id="Qz8t4njGLXkgyJiMcpQb-3" value="Billing" style="rounded=1;whiteSpace=wrap;html=1;" vertex="1" parent="1">
          <mxGeometry x="700" y="200" width="120" height="60" as="geometry" />
        </mxCell>
        <mxCell id="Qz8t4njGLXkgyJiMcpQb-23" value="" style="edgeStyle=orthogonalEdgeStyle;rounded=0;orthogonalLoop=1;jettySize=auto;html=1;" edge="1" parent="1" source="Qz8t4njGLXkgyJiMcpQb-4" target="Qz8t4njGLXkgyJiMcpQb-19">
          <mxGeometry relative="1" as="geometry" />
        </mxCell>
        <mxCell id="Qz8t4njGLXkgyJiMcpQb-4" value="Manage Bookings" style="rounded=1;whiteSpace=wrap;html=1;" vertex="1" parent="1">
          <mxGeometry x="480" y="200" width="120" height="60" as="geometry" />
        </mxCell>
        <mxCell id="Qz8t4njGLXkgyJiMcpQb-22" value="" style="edgeStyle=orthogonalEdgeStyle;rounded=0;orthogonalLoop=1;jettySize=auto;html=1;" edge="1" parent="1" source="Qz8t4njGLXkgyJiMcpQb-5" target="Qz8t4njGLXkgyJiMcpQb-18">
          <mxGeometry relative="1" as="geometry" />
        </mxCell>
        <mxCell id="Qz8t4njGLXkgyJiMcpQb-5" value="Manage Cabs&lt;div&gt;(Taxi)&lt;/div&gt;" style="rounded=1;whiteSpace=wrap;html=1;" vertex="1" parent="1">
          <mxGeometry x="200" y="200" width="120" height="60" as="geometry" />
        </mxCell>
        <mxCell id="Qz8t4njGLXkgyJiMcpQb-8" value="" style="endArrow=none;html=1;rounded=0;entryX=0;entryY=0.5;entryDx=0;entryDy=0;" edge="1" parent="1" target="Qz8t4njGLXkgyJiMcpQb-1">
          <mxGeometry width="50" height="50" relative="1" as="geometry">
            <mxPoint x="60" y="80" as="sourcePoint" />
            <mxPoint x="570" y="290" as="targetPoint" />
          </mxGeometry>
        </mxCell>
        <mxCell id="Qz8t4njGLXkgyJiMcpQb-9" value="" style="endArrow=none;html=1;rounded=0;entryX=1;entryY=0.5;entryDx=0;entryDy=0;" edge="1" parent="1" target="Qz8t4njGLXkgyJiMcpQb-1">
          <mxGeometry width="50" height="50" relative="1" as="geometry">
            <mxPoint x="760" y="80" as="sourcePoint" />
            <mxPoint x="570" y="290" as="targetPoint" />
          </mxGeometry>
        </mxCell>
        <mxCell id="Qz8t4njGLXkgyJiMcpQb-10" value="" style="endArrow=classic;html=1;rounded=0;entryX=0.5;entryY=0;entryDx=0;entryDy=0;" edge="1" parent="1" target="Qz8t4njGLXkgyJiMcpQb-2">
          <mxGeometry width="50" height="50" relative="1" as="geometry">
            <mxPoint x="60" y="80" as="sourcePoint" />
            <mxPoint x="470" y="270" as="targetPoint" />
          </mxGeometry>
        </mxCell>
        <mxCell id="Qz8t4njGLXkgyJiMcpQb-11" value="" style="endArrow=classic;html=1;rounded=0;entryX=0.5;entryY=0;entryDx=0;entryDy=0;" edge="1" parent="1" target="Qz8t4njGLXkgyJiMcpQb-5">
          <mxGeometry width="50" height="50" relative="1" as="geometry">
            <mxPoint x="260" y="80" as="sourcePoint" />
            <mxPoint x="570" y="290" as="targetPoint" />
          </mxGeometry>
        </mxCell>
        <mxCell id="Qz8t4njGLXkgyJiMcpQb-12" value="" style="endArrow=classic;html=1;rounded=0;entryX=0.5;entryY=0;entryDx=0;entryDy=0;" edge="1" parent="1" target="Qz8t4njGLXkgyJiMcpQb-4">
          <mxGeometry width="50" height="50" relative="1" as="geometry">
            <mxPoint x="540" y="80" as="sourcePoint" />
            <mxPoint x="570" y="290" as="targetPoint" />
          </mxGeometry>
        </mxCell>
        <mxCell id="Qz8t4njGLXkgyJiMcpQb-13" value="" style="endArrow=classic;html=1;rounded=0;entryX=0.5;entryY=0;entryDx=0;entryDy=0;" edge="1" parent="1" target="Qz8t4njGLXkgyJiMcpQb-3">
          <mxGeometry width="50" height="50" relative="1" as="geometry">
            <mxPoint x="760" y="80" as="sourcePoint" />
            <mxPoint x="570" y="290" as="targetPoint" />
          </mxGeometry>
        </mxCell>
        <mxCell id="Qz8t4njGLXkgyJiMcpQb-14" value="" style="endArrow=none;html=1;rounded=0;exitX=1;exitY=0.5;exitDx=0;exitDy=0;entryX=0;entryY=0.5;entryDx=0;entryDy=0;" edge="1" parent="1" source="Qz8t4njGLXkgyJiMcpQb-2" target="Qz8t4njGLXkgyJiMcpQb-5">
          <mxGeometry width="50" height="50" relative="1" as="geometry">
            <mxPoint x="520" y="340" as="sourcePoint" />
            <mxPoint x="570" y="290" as="targetPoint" />
          </mxGeometry>
        </mxCell>
        <mxCell id="Qz8t4njGLXkgyJiMcpQb-15" value="" style="endArrow=none;html=1;rounded=0;exitX=1;exitY=0.5;exitDx=0;exitDy=0;entryX=0;entryY=0.5;entryDx=0;entryDy=0;" edge="1" parent="1" source="Qz8t4njGLXkgyJiMcpQb-5" target="Qz8t4njGLXkgyJiMcpQb-4">
          <mxGeometry width="50" height="50" relative="1" as="geometry">
            <mxPoint x="520" y="340" as="sourcePoint" />
            <mxPoint x="470" y="240" as="targetPoint" />
          </mxGeometry>
        </mxCell>
        <mxCell id="Qz8t4njGLXkgyJiMcpQb-16" value="" style="endArrow=classic;html=1;rounded=0;exitX=1;exitY=0.5;exitDx=0;exitDy=0;entryX=0;entryY=0.5;entryDx=0;entryDy=0;" edge="1" parent="1" source="Qz8t4njGLXkgyJiMcpQb-4" target="Qz8t4njGLXkgyJiMcpQb-3">
          <mxGeometry width="50" height="50" relative="1" as="geometry">
            <mxPoint x="520" y="340" as="sourcePoint" />
            <mxPoint x="570" y="290" as="targetPoint" />
          </mxGeometry>
        </mxCell>
        <mxCell id="Qz8t4njGLXkgyJiMcpQb-17" value="User detail (ID,name, age..etc)&lt;div&gt;&lt;br&gt;&lt;/div&gt;&lt;div&gt;getDetail()&lt;/div&gt;&lt;div&gt;showDetail() to&amp;nbsp;&lt;/div&gt;&lt;div&gt;txt file&lt;/div&gt;" style="rounded=1;whiteSpace=wrap;html=1;absoluteArcSize=1;arcSize=14;strokeWidth=2;" vertex="1" parent="1">
          <mxGeometry y="320" width="120" height="160" as="geometry" />
        </mxCell>
        <mxCell id="Qz8t4njGLXkgyJiMcpQb-18" value="Cabs choice, kilometres, cost&lt;div&gt;&lt;br&gt;&lt;/div&gt;&lt;div&gt;cabsDetail()&lt;/div&gt;" style="rounded=1;whiteSpace=wrap;html=1;absoluteArcSize=1;arcSize=14;strokeWidth=2;" vertex="1" parent="1">
          <mxGeometry x="200" y="320" width="120" height="160" as="geometry" />
        </mxCell>
        <mxCell id="Qz8t4njGLXkgyJiMcpQb-19" value="hotelChoice, package,&amp;nbsp;&lt;div&gt;hotel [], cost&lt;/div&gt;&lt;div&gt;&lt;br&gt;&lt;/div&gt;&lt;div&gt;hotels()&lt;br&gt;&lt;div&gt;&lt;br&gt;&lt;/div&gt;&lt;div&gt;&amp;nbsp;&lt;/div&gt;&lt;/div&gt;" style="rounded=1;whiteSpace=wrap;html=1;absoluteArcSize=1;arcSize=14;strokeWidth=2;" vertex="1" parent="1">
          <mxGeometry x="480" y="320" width="120" height="160" as="geometry" />
        </mxCell>
        <mxCell id="Qz8t4njGLXkgyJiMcpQb-20" value="cabCharge, hotelCharge, totalCost&lt;div&gt;&lt;br&gt;&lt;/div&gt;&lt;div&gt;printBill() - txt file&lt;/div&gt;&lt;div&gt;showBill()&lt;/div&gt;" style="rounded=1;whiteSpace=wrap;html=1;absoluteArcSize=1;arcSize=14;strokeWidth=2;" vertex="1" parent="1">
          <mxGeometry x="696.5" y="330" width="127" height="160" as="geometry" />
        </mxCell>
        <mxCell id="Qz8t4njGLXkgyJiMcpQb-25" value="" style="endArrow=none;dashed=1;html=1;dashPattern=1 3;strokeWidth=2;rounded=0;" edge="1" parent="1">
          <mxGeometry width="50" height="50" relative="1" as="geometry">
            <mxPoint x="40" y="560" as="sourcePoint" />
            <mxPoint x="780" y="560" as="targetPoint" />
          </mxGeometry>
        </mxCell>
        <mxCell id="Qz8t4njGLXkgyJiMcpQb-30" value="" style="edgeStyle=orthogonalEdgeStyle;rounded=0;orthogonalLoop=1;jettySize=auto;html=1;" edge="1" parent="1" source="Qz8t4njGLXkgyJiMcpQb-26" target="Qz8t4njGLXkgyJiMcpQb-29">
          <mxGeometry relative="1" as="geometry" />
        </mxCell>
        <mxCell id="Qz8t4njGLXkgyJiMcpQb-26" value="receipt.txt" style="shape=note;whiteSpace=wrap;html=1;backgroundOutline=1;darkOpacity=0.05;" vertex="1" parent="1">
          <mxGeometry x="20" y="640" width="80" height="100" as="geometry" />
        </mxCell>
        <mxCell id="Qz8t4njGLXkgyJiMcpQb-29" value="customerID, cost for each item, totalCharge&lt;div&gt;&lt;br&gt;&lt;/div&gt;&lt;div&gt;(save above attributes of present customer)&lt;/div&gt;" style="rounded=1;whiteSpace=wrap;html=1;" vertex="1" parent="1">
          <mxGeometry x="190" y="600" width="160" height="180" as="geometry" />
        </mxCell>
        <mxCell id="Qz8t4njGLXkgyJiMcpQb-34" value="" style="edgeStyle=orthogonalEdgeStyle;rounded=0;orthogonalLoop=1;jettySize=auto;html=1;" edge="1" parent="1" source="Qz8t4njGLXkgyJiMcpQb-32" target="Qz8t4njGLXkgyJiMcpQb-33">
          <mxGeometry relative="1" as="geometry" />
        </mxCell>
        <mxCell id="Qz8t4njGLXkgyJiMcpQb-32" value="oldCustomers.txt" style="shape=note;whiteSpace=wrap;html=1;backgroundOutline=1;darkOpacity=0.05;" vertex="1" parent="1">
          <mxGeometry x="450" y="640" width="110" height="100" as="geometry" />
        </mxCell>
        <mxCell id="Qz8t4njGLXkgyJiMcpQb-33" value="save all detail of old customers who used the system" style="rounded=1;whiteSpace=wrap;html=1;" vertex="1" parent="1">
          <mxGeometry x="635" y="600" width="165" height="180" as="geometry" />
        </mxCell>
        <mxCell id="Qz8t4njGLXkgyJiMcpQb-35" value="" style="endArrow=none;dashed=1;html=1;dashPattern=1 3;strokeWidth=2;rounded=0;" edge="1" parent="1">
          <mxGeometry width="50" height="50" relative="1" as="geometry">
            <mxPoint x="40" y="880" as="sourcePoint" />
            <mxPoint x="780" y="880" as="targetPoint" />
          </mxGeometry>
        </mxCell>
        <mxCell id="Qz8t4njGLXkgyJiMcpQb-48" value="" style="edgeStyle=orthogonalEdgeStyle;rounded=0;orthogonalLoop=1;jettySize=auto;html=1;" edge="1" parent="1" source="Qz8t4njGLXkgyJiMcpQb-36" target="Qz8t4njGLXkgyJiMcpQb-47">
          <mxGeometry relative="1" as="geometry" />
        </mxCell>
        <mxCell id="Qz8t4njGLXkgyJiMcpQb-36" value="Management System Menu" style="rounded=0;whiteSpace=wrap;html=1;" vertex="1" parent="1">
          <mxGeometry x="45" y="920" width="120" height="60" as="geometry" />
        </mxCell>
        <mxCell id="Qz8t4njGLXkgyJiMcpQb-47" value="systemUserName;&lt;div&gt;manageMenu();&amp;nbsp;&lt;/div&gt;" style="shape=step;perimeter=stepPerimeter;whiteSpace=wrap;html=1;fixedSize=1;rounded=0;" vertex="1" parent="1">
          <mxGeometry x="10" y="1050" width="190" height="80" as="geometry" />
        </mxCell>
        <mxCell id="Qz8t4njGLXkgyJiMcpQb-49" value="Main Menu" style="rounded=0;whiteSpace=wrap;html=1;" vertex="1" parent="1">
          <mxGeometry x="330" y="1060" width="120" height="60" as="geometry" />
        </mxCell>
        <mxCell id="Qz8t4njGLXkgyJiMcpQb-50" value="" style="endArrow=none;html=1;rounded=0;exitX=1;exitY=0.5;exitDx=0;exitDy=0;entryX=0;entryY=0.5;entryDx=0;entryDy=0;" edge="1" parent="1" source="Qz8t4njGLXkgyJiMcpQb-47" target="Qz8t4njGLXkgyJiMcpQb-49">
          <mxGeometry width="50" height="50" relative="1" as="geometry">
            <mxPoint x="540" y="930" as="sourcePoint" />
            <mxPoint x="590" y="880" as="targetPoint" />
          </mxGeometry>
        </mxCell>
      </root>
    </mxGraphModel>
  </diagram>
</mxfile>
